<svg width="800" height="450" viewBox="0 0 800 450" xmlns="http://www.w3.org/2000/svg">
  <!-- Background gradient -->
  <defs>
    <linearGradient id="bgGradient" x1="0%" y1="0%" x2="100%" y2="100%">
      <stop offset="0%" style="stop-color:#08D9D6;stop-opacity:1" />
      <stop offset="100%" style="stop-color:#252A34;stop-opacity:1" />
    </linearGradient>
  </defs>
  
  <!-- Background -->
  <rect width="800" height="450" fill="url(#bgGradient)"/>
  
  <!-- Content -->
  <g transform="translate(400,225)">
    <!-- Linux Penguin Icon (simplified) -->
    <circle cx="0" cy="-30" r="45" fill="white" opacity="0.9"/>
    <circle cx="0" cy="-35" r="25" fill="#252A34"/>
    <circle cx="-8" cy="-40" r="3" fill="white"/>
    <circle cx="8" cy="-40" r="3" fill="white"/>
    <ellipse cx="0" cy="-25" rx="4" ry="6" fill="#FF6B35"/>
    
    <!-- Title -->
    <text x="0" y="30" text-anchor="middle" font-family="Arial, sans-serif" font-size="32" font-weight="bold" fill="white">
      Linux Solutions
    </text>
    
    <!-- Subtitle -->
    <text x="0" y="60" text-anchor="middle" font-family="Arial, sans-serif" font-size="18" fill="white" opacity="0.9">
      System Administration &amp; DevOps
    </text>
    
    <!-- Decorative elements -->
    <rect x="-150" y="80" width="300" height="2" fill="white" opacity="0.6"/>
    
    <!-- Tech icons (simplified) -->
    <circle cx="-60" cy="110" r="8" fill="white" opacity="0.8"/>
    <rect x="-65" y="105" width="10" height="10" fill="#252A34" opacity="0.6"/>
    
    <circle cx="-20" cy="110" r="8" fill="white" opacity="0.8"/>
    <rect x="-25" y="105" width="10" height="10" fill="#252A34" opacity="0.6"/>
    
    <circle cx="20" cy="110" r="8" fill="white" opacity="0.8"/>
    <rect x="15" y="105" width="10" height="10" fill="#252A34" opacity="0.6"/>
    
    <circle cx="60" cy="110" r="8" fill="white" opacity="0.8"/>
    <rect x="55" y="105" width="10" height="10" fill="#252A34" opacity="0.6"/>
  </g>
</svg> 